<mxfile host="app.diagrams.net" modified="2022-12-06T13:51:55.242Z" agent="5.0 (Windows NT 10.0; Win64; x64) AppleWebKit/537.36 (KHTML, like Gecko) Chrome/108.0.0.0 Safari/537.36" etag="cCA6LNUGchZ1LevJ7fAk" version="20.6.0" type="github">
  <diagram id="C5RBs43oDa-KdzZeNtuy" name="Page-1">
    <mxGraphModel dx="2370" dy="1233" grid="1" gridSize="10" guides="1" tooltips="1" connect="1" arrows="1" fold="1" page="1" pageScale="1" pageWidth="827" pageHeight="1169" math="0" shadow="0">
      <root>
        <mxCell id="WIyWlLk6GJQsqaUBKTNV-0" />
        <mxCell id="WIyWlLk6GJQsqaUBKTNV-1" parent="WIyWlLk6GJQsqaUBKTNV-0" />
        <mxCell id="Pv5caGlSZ3BdsRGH_1Py-0" value="DataIterator" style="swimlane;fontStyle=1;align=center;verticalAlign=top;childLayout=stackLayout;horizontal=1;startSize=26;horizontalStack=0;resizeParent=1;resizeLast=0;collapsible=1;marginBottom=0;rounded=0;shadow=0;strokeWidth=1;" parent="WIyWlLk6GJQsqaUBKTNV-1" vertex="1">
          <mxGeometry x="120" y="490" width="200" height="120" as="geometry">
            <mxRectangle x="130" y="380" width="160" height="26" as="alternateBounds" />
          </mxGeometry>
        </mxCell>
        <mxCell id="Pv5caGlSZ3BdsRGH_1Py-1" value="- data: number[]&#xa;- index: number" style="text;align=left;verticalAlign=top;spacingLeft=4;spacingRight=4;overflow=hidden;rotatable=0;points=[[0,0.5],[1,0.5]];portConstraint=eastwest;" parent="Pv5caGlSZ3BdsRGH_1Py-0" vertex="1">
          <mxGeometry y="26" width="200" height="44" as="geometry" />
        </mxCell>
        <mxCell id="aT5mUCiTTRZDtg26jare-1" value="Use" style="endArrow=open;endSize=12;dashed=1;html=1;rounded=0;" edge="1" parent="Pv5caGlSZ3BdsRGH_1Py-0">
          <mxGeometry width="160" relative="1" as="geometry">
            <mxPoint x="200" y="50" as="sourcePoint" />
            <mxPoint x="290" y="50" as="targetPoint" />
          </mxGeometry>
        </mxCell>
        <mxCell id="Pv5caGlSZ3BdsRGH_1Py-2" value="" style="line;html=1;strokeWidth=1;align=left;verticalAlign=middle;spacingTop=-1;spacingLeft=3;spacingRight=3;rotatable=0;labelPosition=right;points=[];portConstraint=eastwest;" parent="Pv5caGlSZ3BdsRGH_1Py-0" vertex="1">
          <mxGeometry y="70" width="200" height="8" as="geometry" />
        </mxCell>
        <mxCell id="Pv5caGlSZ3BdsRGH_1Py-3" value="+ next():number|null&#xa;+ hasNext():boolean" style="text;align=left;verticalAlign=top;spacingLeft=4;spacingRight=4;overflow=hidden;rotatable=0;points=[[0,0.5],[1,0.5]];portConstraint=eastwest;" parent="Pv5caGlSZ3BdsRGH_1Py-0" vertex="1">
          <mxGeometry y="78" width="200" height="42" as="geometry" />
        </mxCell>
        <mxCell id="Pv5caGlSZ3BdsRGH_1Py-7" value="&lt;p style=&quot;margin:0px;margin-top:4px;text-align:center;&quot;&gt;&lt;b&gt;DataContainer&lt;/b&gt;&lt;/p&gt;&lt;hr size=&quot;1&quot;&gt;&lt;p style=&quot;margin:0px;margin-left:4px;&quot;&gt;+ data: number[]&lt;/p&gt;&lt;hr size=&quot;1&quot;&gt;&lt;p style=&quot;margin:0px;margin-left:4px;&quot;&gt;+ getIterator():DataIterator&lt;/p&gt;" style="verticalAlign=top;align=left;overflow=fill;fontSize=12;fontFamily=Helvetica;html=1;" parent="WIyWlLk6GJQsqaUBKTNV-1" vertex="1">
          <mxGeometry x="412" y="492" width="208" height="90" as="geometry" />
        </mxCell>
        <mxCell id="aT5mUCiTTRZDtg26jare-0" value="&lt;div style=&quot;color: rgb(166, 172, 205); background-color: rgb(41, 45, 62); font-family: Consolas, &amp;quot;Courier New&amp;quot;, monospace; font-weight: normal; font-size: 17px; line-height: 23px;&quot;&gt;&lt;div&gt;&lt;span style=&quot;color: #c792ea;&quot;&gt;class&lt;/span&gt;&lt;span style=&quot;color: #a6accd;&quot;&gt; &lt;/span&gt;&lt;span style=&quot;color: #ffcb6b;&quot;&gt;DataIterator&lt;/span&gt;&lt;span style=&quot;color: #a6accd;&quot;&gt; &lt;/span&gt;&lt;span style=&quot;color: #89ddff;&quot;&gt;{&lt;/span&gt;&lt;/div&gt;&lt;div&gt;&lt;span style=&quot;color: #a6accd;&quot;&gt;&amp;nbsp; &lt;/span&gt;&lt;span style=&quot;color: #c792ea;&quot;&gt;private&lt;/span&gt;&lt;span style=&quot;color: #a6accd;&quot;&gt; &lt;/span&gt;&lt;span style=&quot;color: #a6accd;&quot;&gt;data&lt;/span&gt;&lt;span style=&quot;color: #89ddff;&quot;&gt;:&lt;/span&gt;&lt;span style=&quot;color: #a6accd;&quot;&gt; &lt;/span&gt;&lt;span style=&quot;color: #ffcb6b;&quot;&gt;number&lt;/span&gt;&lt;span style=&quot;color: #a6accd;&quot;&gt;[]&lt;/span&gt;&lt;span style=&quot;color: #89ddff;&quot;&gt;;&lt;/span&gt;&lt;/div&gt;&lt;div&gt;&lt;span style=&quot;color: #a6accd;&quot;&gt;&amp;nbsp; &lt;/span&gt;&lt;span style=&quot;color: #c792ea;&quot;&gt;private&lt;/span&gt;&lt;span style=&quot;color: #a6accd;&quot;&gt; &lt;/span&gt;&lt;span style=&quot;color: #a6accd;&quot;&gt;index&lt;/span&gt;&lt;span style=&quot;color: #a6accd;&quot;&gt; &lt;/span&gt;&lt;span style=&quot;color: #89ddff;&quot;&gt;=&lt;/span&gt;&lt;span style=&quot;color: #a6accd;&quot;&gt; &lt;/span&gt;&lt;span style=&quot;color: #f78c6c;&quot;&gt;0&lt;/span&gt;&lt;span style=&quot;color: #89ddff;&quot;&gt;;&lt;/span&gt;&lt;/div&gt;&lt;br&gt;&lt;div&gt;&lt;span style=&quot;color: #a6accd;&quot;&gt;&amp;nbsp; &lt;/span&gt;&lt;span style=&quot;color: #c792ea;&quot;&gt;constructor&lt;/span&gt;&lt;span style=&quot;color: #89ddff;&quot;&gt;(&lt;/span&gt;&lt;span style=&quot;color: #a6accd;font-style: italic;&quot;&gt;container&lt;/span&gt;&lt;span style=&quot;color: #89ddff;&quot;&gt;:&lt;/span&gt;&lt;span style=&quot;color: #a6accd;&quot;&gt; &lt;/span&gt;&lt;span style=&quot;color: #ffcb6b;&quot;&gt;DataContainer&lt;/span&gt;&lt;span style=&quot;color: #89ddff;&quot;&gt;)&lt;/span&gt;&lt;span style=&quot;color: #a6accd;&quot;&gt; &lt;/span&gt;&lt;span style=&quot;color: #89ddff;&quot;&gt;{&lt;/span&gt;&lt;/div&gt;&lt;div&gt;&lt;span style=&quot;color: #f07178;&quot;&gt;&amp;nbsp; &amp;nbsp; &lt;/span&gt;&lt;span style=&quot;color: #89ddff;&quot;&gt;this.&lt;/span&gt;&lt;span style=&quot;color: #a6accd;&quot;&gt;data&lt;/span&gt;&lt;span style=&quot;color: #f07178;&quot;&gt; &lt;/span&gt;&lt;span style=&quot;color: #89ddff;&quot;&gt;=&lt;/span&gt;&lt;span style=&quot;color: #f07178;&quot;&gt; &lt;/span&gt;&lt;span style=&quot;color: #a6accd;font-style: italic;&quot;&gt;container&lt;/span&gt;&lt;span style=&quot;color: #89ddff;&quot;&gt;.&lt;/span&gt;&lt;span style=&quot;color: #a6accd;&quot;&gt;data&lt;/span&gt;&lt;span style=&quot;color: #89ddff;&quot;&gt;;&lt;/span&gt;&lt;/div&gt;&lt;div&gt;&lt;span style=&quot;color: #f07178;&quot;&gt;&amp;nbsp; &lt;/span&gt;&lt;span style=&quot;color: #89ddff;&quot;&gt;}&lt;/span&gt;&lt;/div&gt;&lt;br&gt;&lt;div&gt;&lt;span style=&quot;color: #a6accd;&quot;&gt;&amp;nbsp; &lt;/span&gt;&lt;span style=&quot;color: #82aaff;&quot;&gt;next&lt;/span&gt;&lt;span style=&quot;color: #89ddff;&quot;&gt;():&lt;/span&gt;&lt;span style=&quot;color: #a6accd;&quot;&gt; &lt;/span&gt;&lt;span style=&quot;color: #ffcb6b;&quot;&gt;number&lt;/span&gt;&lt;span style=&quot;color: #a6accd;&quot;&gt; &lt;/span&gt;&lt;span style=&quot;color: #89ddff;&quot;&gt;|&lt;/span&gt;&lt;span style=&quot;color: #a6accd;&quot;&gt; &lt;/span&gt;&lt;span style=&quot;color: #ffcb6b;&quot;&gt;null&lt;/span&gt;&lt;span style=&quot;color: #a6accd;&quot;&gt; &lt;/span&gt;&lt;span style=&quot;color: #89ddff;&quot;&gt;{&lt;/span&gt;&lt;/div&gt;&lt;div&gt;&lt;span style=&quot;color: #f07178;&quot;&gt;&amp;nbsp; &amp;nbsp; &lt;/span&gt;&lt;span style=&quot;color: #89ddff;font-style: italic;&quot;&gt;if&lt;/span&gt;&lt;span style=&quot;color: #f07178;&quot;&gt; (&lt;/span&gt;&lt;span style=&quot;color: #89ddff;&quot;&gt;this.&lt;/span&gt;&lt;span style=&quot;color: #82aaff;&quot;&gt;hasNext&lt;/span&gt;&lt;span style=&quot;color: #f07178;&quot;&gt;()) &lt;/span&gt;&lt;span style=&quot;color: #89ddff;&quot;&gt;{&lt;/span&gt;&lt;/div&gt;&lt;div&gt;&lt;span style=&quot;color: #f07178;&quot;&gt;&amp;nbsp; &amp;nbsp; &amp;nbsp; &lt;/span&gt;&lt;span style=&quot;color: #89ddff;font-style: italic;&quot;&gt;return&lt;/span&gt;&lt;span style=&quot;color: #f07178;&quot;&gt; &lt;/span&gt;&lt;span style=&quot;color: #89ddff;&quot;&gt;this.&lt;/span&gt;&lt;span style=&quot;color: #a6accd;&quot;&gt;data&lt;/span&gt;&lt;span style=&quot;color: #f07178;&quot;&gt;[&lt;/span&gt;&lt;span style=&quot;color: #89ddff;&quot;&gt;this.&lt;/span&gt;&lt;span style=&quot;color: #a6accd;&quot;&gt;index&lt;/span&gt;&lt;span style=&quot;color: #89ddff;&quot;&gt;++&lt;/span&gt;&lt;span style=&quot;color: #f07178;&quot;&gt;]&lt;/span&gt;&lt;span style=&quot;color: #89ddff;&quot;&gt;;&lt;/span&gt;&lt;span style=&quot;color: #f07178;&quot;&gt; &lt;/span&gt;&lt;span style=&quot;color: #676e95;font-style: italic;&quot;&gt;// 返回下一个值 &amp;amp; 累加index&lt;/span&gt;&lt;/div&gt;&lt;div&gt;&lt;span style=&quot;color: #f07178;&quot;&gt;&amp;nbsp; &amp;nbsp; &lt;/span&gt;&lt;span style=&quot;color: #89ddff;&quot;&gt;}&lt;/span&gt;&lt;/div&gt;&lt;div&gt;&lt;span style=&quot;color: #f07178;&quot;&gt;&amp;nbsp; &amp;nbsp; &lt;/span&gt;&lt;span style=&quot;color: #89ddff;font-style: italic;&quot;&gt;return&lt;/span&gt;&lt;span style=&quot;color: #f07178;&quot;&gt; &lt;/span&gt;&lt;span style=&quot;color: #89ddff;&quot;&gt;null;&lt;/span&gt;&lt;/div&gt;&lt;div&gt;&lt;span style=&quot;color: #f07178;&quot;&gt;&amp;nbsp; &lt;/span&gt;&lt;span style=&quot;color: #89ddff;&quot;&gt;}&lt;/span&gt;&lt;/div&gt;&lt;br&gt;&lt;div&gt;&lt;span style=&quot;color: #a6accd;&quot;&gt;&amp;nbsp; &lt;/span&gt;&lt;span style=&quot;color: #82aaff;&quot;&gt;hasNext&lt;/span&gt;&lt;span style=&quot;color: #89ddff;&quot;&gt;():&lt;/span&gt;&lt;span style=&quot;color: #a6accd;&quot;&gt; &lt;/span&gt;&lt;span style=&quot;color: #ffcb6b;&quot;&gt;boolean&lt;/span&gt;&lt;span style=&quot;color: #a6accd;&quot;&gt; &lt;/span&gt;&lt;span style=&quot;color: #89ddff;&quot;&gt;{&lt;/span&gt;&lt;/div&gt;&lt;div&gt;&lt;span style=&quot;color: #f07178;&quot;&gt;&amp;nbsp; &amp;nbsp; &lt;/span&gt;&lt;span style=&quot;color: #89ddff;font-style: italic;&quot;&gt;if&lt;/span&gt;&lt;span style=&quot;color: #f07178;&quot;&gt; (&lt;/span&gt;&lt;span style=&quot;color: #89ddff;&quot;&gt;this.&lt;/span&gt;&lt;span style=&quot;color: #a6accd;&quot;&gt;index&lt;/span&gt;&lt;span style=&quot;color: #f07178;&quot;&gt; &lt;/span&gt;&lt;span style=&quot;color: #89ddff;&quot;&gt;&amp;gt;=&lt;/span&gt;&lt;span style=&quot;color: #f07178;&quot;&gt; &lt;/span&gt;&lt;span style=&quot;color: #89ddff;&quot;&gt;this.&lt;/span&gt;&lt;span style=&quot;color: #a6accd;&quot;&gt;data&lt;/span&gt;&lt;span style=&quot;color: #89ddff;&quot;&gt;.&lt;/span&gt;&lt;span style=&quot;color: #a6accd;&quot;&gt;length&lt;/span&gt;&lt;span style=&quot;color: #f07178;&quot;&gt;) &lt;/span&gt;&lt;span style=&quot;color: #89ddff;font-style: italic;&quot;&gt;return&lt;/span&gt;&lt;span style=&quot;color: #f07178;&quot;&gt; &lt;/span&gt;&lt;span style=&quot;color: #ff9cac;&quot;&gt;false&lt;/span&gt;&lt;span style=&quot;color: #89ddff;&quot;&gt;;&lt;/span&gt;&lt;/div&gt;&lt;div&gt;&lt;span style=&quot;color: #f07178;&quot;&gt;&amp;nbsp; &amp;nbsp; &lt;/span&gt;&lt;span style=&quot;color: #89ddff;font-style: italic;&quot;&gt;return&lt;/span&gt;&lt;span style=&quot;color: #f07178;&quot;&gt; &lt;/span&gt;&lt;span style=&quot;color: #ff9cac;&quot;&gt;true&lt;/span&gt;&lt;span style=&quot;color: #89ddff;&quot;&gt;;&lt;/span&gt;&lt;/div&gt;&lt;div&gt;&lt;span style=&quot;color: #f07178;&quot;&gt;&amp;nbsp; &lt;/span&gt;&lt;span style=&quot;color: #89ddff;&quot;&gt;}&lt;/span&gt;&lt;/div&gt;&lt;div&gt;&lt;span style=&quot;color: #89ddff;&quot;&gt;}&lt;/span&gt;&lt;/div&gt;&lt;br&gt;&lt;div&gt;&lt;span style=&quot;color: #c792ea;&quot;&gt;class&lt;/span&gt;&lt;span style=&quot;color: #a6accd;&quot;&gt; &lt;/span&gt;&lt;span style=&quot;color: #ffcb6b;&quot;&gt;DataContainer&lt;/span&gt;&lt;span style=&quot;color: #a6accd;&quot;&gt; &lt;/span&gt;&lt;span style=&quot;color: #89ddff;&quot;&gt;{&lt;/span&gt;&lt;/div&gt;&lt;div&gt;&lt;span style=&quot;color: #a6accd;&quot;&gt;&amp;nbsp; &lt;/span&gt;&lt;span style=&quot;color: #a6accd;&quot;&gt;data&lt;/span&gt;&lt;span style=&quot;color: #a6accd;&quot;&gt; &lt;/span&gt;&lt;span style=&quot;color: #89ddff;&quot;&gt;=&lt;/span&gt;&lt;span style=&quot;color: #a6accd;&quot;&gt; [&lt;/span&gt;&lt;span style=&quot;color: #f78c6c;&quot;&gt;10&lt;/span&gt;&lt;span style=&quot;color: #89ddff;&quot;&gt;,&lt;/span&gt;&lt;span style=&quot;color: #a6accd;&quot;&gt; &lt;/span&gt;&lt;span style=&quot;color: #f78c6c;&quot;&gt;20&lt;/span&gt;&lt;span style=&quot;color: #89ddff;&quot;&gt;,&lt;/span&gt;&lt;span style=&quot;color: #a6accd;&quot;&gt; &lt;/span&gt;&lt;span style=&quot;color: #f78c6c;&quot;&gt;30&lt;/span&gt;&lt;span style=&quot;color: #89ddff;&quot;&gt;,&lt;/span&gt;&lt;span style=&quot;color: #a6accd;&quot;&gt; &lt;/span&gt;&lt;span style=&quot;color: #f78c6c;&quot;&gt;40&lt;/span&gt;&lt;span style=&quot;color: #89ddff;&quot;&gt;,&lt;/span&gt;&lt;span style=&quot;color: #a6accd;&quot;&gt; &lt;/span&gt;&lt;span style=&quot;color: #f78c6c;&quot;&gt;50&lt;/span&gt;&lt;span style=&quot;color: #89ddff;&quot;&gt;,&lt;/span&gt;&lt;span style=&quot;color: #a6accd;&quot;&gt; &lt;/span&gt;&lt;span style=&quot;color: #f78c6c;&quot;&gt;60&lt;/span&gt;&lt;span style=&quot;color: #a6accd;&quot;&gt;]&lt;/span&gt;&lt;span style=&quot;color: #89ddff;&quot;&gt;;&lt;/span&gt;&lt;/div&gt;&lt;div&gt;&lt;span style=&quot;color: #a6accd;&quot;&gt;&amp;nbsp; &lt;/span&gt;&lt;span style=&quot;color: #82aaff;&quot;&gt;getIterator&lt;/span&gt;&lt;span style=&quot;color: #89ddff;&quot;&gt;()&lt;/span&gt;&lt;span style=&quot;color: #a6accd;&quot;&gt; &lt;/span&gt;&lt;span style=&quot;color: #89ddff;&quot;&gt;{&lt;/span&gt;&lt;/div&gt;&lt;div&gt;&lt;span style=&quot;color: #89ddff;&quot;&gt;&amp;nbsp; &amp;nbsp; &lt;/span&gt;&lt;span style=&quot;color: #676e95;font-style: italic;&quot;&gt;// 获取迭代器&lt;/span&gt;&lt;/div&gt;&lt;div&gt;&lt;span style=&quot;color: #f07178;&quot;&gt;&amp;nbsp; &amp;nbsp; &lt;/span&gt;&lt;span style=&quot;color: #89ddff;font-style: italic;&quot;&gt;return&lt;/span&gt;&lt;span style=&quot;color: #f07178;&quot;&gt; &lt;/span&gt;&lt;span style=&quot;color: #89ddff;&quot;&gt;new&lt;/span&gt;&lt;span style=&quot;color: #f07178;&quot;&gt; &lt;/span&gt;&lt;span style=&quot;color: #ffcb6b;&quot;&gt;DataIterator&lt;/span&gt;&lt;span style=&quot;color: #f07178;&quot;&gt;(&lt;/span&gt;&lt;span style=&quot;color: #89ddff;&quot;&gt;this&lt;/span&gt;&lt;span style=&quot;color: #f07178;&quot;&gt;)&lt;/span&gt;&lt;span style=&quot;color: #89ddff;&quot;&gt;;&lt;/span&gt;&lt;/div&gt;&lt;div&gt;&lt;span style=&quot;color: #f07178;&quot;&gt;&amp;nbsp; &lt;/span&gt;&lt;span style=&quot;color: #89ddff;&quot;&gt;}&lt;/span&gt;&lt;/div&gt;&lt;div&gt;&lt;span style=&quot;color: #89ddff;&quot;&gt;}&lt;/span&gt;&lt;/div&gt;&lt;br&gt;&lt;div&gt;&lt;span style=&quot;color: #c792ea;&quot;&gt;const&lt;/span&gt;&lt;span style=&quot;color: #a6accd;&quot;&gt; &lt;/span&gt;&lt;span style=&quot;color: #a6accd;&quot;&gt;container&lt;/span&gt;&lt;span style=&quot;color: #a6accd;&quot;&gt; &lt;/span&gt;&lt;span style=&quot;color: #89ddff;&quot;&gt;=&lt;/span&gt;&lt;span style=&quot;color: #a6accd;&quot;&gt; &lt;/span&gt;&lt;span style=&quot;color: #89ddff;&quot;&gt;new&lt;/span&gt;&lt;span style=&quot;color: #a6accd;&quot;&gt; &lt;/span&gt;&lt;span style=&quot;color: #ffcb6b;&quot;&gt;DataContainer&lt;/span&gt;&lt;span style=&quot;color: #a6accd;&quot;&gt;()&lt;/span&gt;&lt;span style=&quot;color: #89ddff;&quot;&gt;;&lt;/span&gt;&lt;/div&gt;&lt;div&gt;&lt;span style=&quot;color: #c792ea;&quot;&gt;const&lt;/span&gt;&lt;span style=&quot;color: #a6accd;&quot;&gt; &lt;/span&gt;&lt;span style=&quot;color: #a6accd;&quot;&gt;iterator&lt;/span&gt;&lt;span style=&quot;color: #a6accd;&quot;&gt; &lt;/span&gt;&lt;span style=&quot;color: #89ddff;&quot;&gt;=&lt;/span&gt;&lt;span style=&quot;color: #a6accd;&quot;&gt; &lt;/span&gt;&lt;span style=&quot;color: #a6accd;&quot;&gt;container&lt;/span&gt;&lt;span style=&quot;color: #89ddff;&quot;&gt;.&lt;/span&gt;&lt;span style=&quot;color: #82aaff;&quot;&gt;getIterator&lt;/span&gt;&lt;span style=&quot;color: #a6accd;&quot;&gt;()&lt;/span&gt;&lt;span style=&quot;color: #89ddff;&quot;&gt;;&lt;/span&gt;&lt;/div&gt;&lt;br&gt;&lt;div&gt;&lt;span style=&quot;color: #89ddff;font-style: italic;&quot;&gt;while&lt;/span&gt;&lt;span style=&quot;color: #a6accd;&quot;&gt; (&lt;/span&gt;&lt;span style=&quot;color: #a6accd;&quot;&gt;iterator&lt;/span&gt;&lt;span style=&quot;color: #89ddff;&quot;&gt;.&lt;/span&gt;&lt;span style=&quot;color: #82aaff;&quot;&gt;hasNext&lt;/span&gt;&lt;span style=&quot;color: #a6accd;&quot;&gt;()) &lt;/span&gt;&lt;span style=&quot;color: #89ddff;&quot;&gt;{&lt;/span&gt;&lt;/div&gt;&lt;div&gt;&lt;span style=&quot;color: #f07178;&quot;&gt;&amp;nbsp; &lt;/span&gt;&lt;span style=&quot;color: #c792ea;&quot;&gt;const&lt;/span&gt;&lt;span style=&quot;color: #f07178;&quot;&gt; &lt;/span&gt;&lt;span style=&quot;color: #a6accd;&quot;&gt;num&lt;/span&gt;&lt;span style=&quot;color: #f07178;&quot;&gt; &lt;/span&gt;&lt;span style=&quot;color: #89ddff;&quot;&gt;=&lt;/span&gt;&lt;span style=&quot;color: #f07178;&quot;&gt; &lt;/span&gt;&lt;span style=&quot;color: #a6accd;&quot;&gt;iterator&lt;/span&gt;&lt;span style=&quot;color: #89ddff;&quot;&gt;.&lt;/span&gt;&lt;span style=&quot;color: #82aaff;&quot;&gt;next&lt;/span&gt;&lt;span style=&quot;color: #f07178;&quot;&gt;()&lt;/span&gt;&lt;span style=&quot;color: #89ddff;&quot;&gt;;&lt;/span&gt;&lt;/div&gt;&lt;div&gt;&lt;span style=&quot;color: #f07178;&quot;&gt;&amp;nbsp; &lt;/span&gt;&lt;span style=&quot;color: #a6accd;&quot;&gt;console&lt;/span&gt;&lt;span style=&quot;color: #89ddff;&quot;&gt;.&lt;/span&gt;&lt;span style=&quot;color: #82aaff;&quot;&gt;log&lt;/span&gt;&lt;span style=&quot;color: #f07178;&quot;&gt;(&lt;/span&gt;&lt;span style=&quot;color: #a6accd;&quot;&gt;num&lt;/span&gt;&lt;span style=&quot;color: #f07178;&quot;&gt;)&lt;/span&gt;&lt;span style=&quot;color: #89ddff;&quot;&gt;;&lt;/span&gt;&lt;/div&gt;&lt;div&gt;&lt;span style=&quot;color: #89ddff;&quot;&gt;}&lt;/span&gt;&lt;/div&gt;&lt;br&gt;&lt;/div&gt;" style="text;whiteSpace=wrap;html=1;" vertex="1" parent="WIyWlLk6GJQsqaUBKTNV-1">
          <mxGeometry x="740" y="150" width="560" height="900" as="geometry" />
        </mxCell>
      </root>
    </mxGraphModel>
  </diagram>
</mxfile>
